# xmcd
#
# Track frame offsets: 
#        150
#        15780
#        31027
#        54277
#        74247
#        91927
#        107142
#        118730
#        139472
#        158760
#
# Disc length: 2504 seconds
#
# Revision: 5
# Processed by: cddbd v1.5.2PL0 Copyright (c) Steve Scherf et al.
# Submitted via: ExactAudioCopy v0.90b4
#
DISCID=7e09c60a
DTITLE=AC-DC - Highway To Hell [Remastered]
DYEAR=2003
DGENRE=Rock
TTITLE0=Highway To Hell
TTITLE1=Girls Got Rhythm
TTITLE2=Walk All Over You
TTITLE3=Touch Too Much
TTITLE4=Beating Around The Bush
TTITLE5=Shot Down In Flames
TTITLE6=Get It Hot
TTITLE7=If You Want Blood (You've Got It)
TTITLE8=Love Hungry Man
TTITLE9=Night Prowler
EXTD=Year: 2003 (First/Original Release 1979]\n\n\n\n\n\n             
EXTD=                                        www.acdcrocks.c
EXTD=om
EXTT0=
EXTT1=
EXTT2=
EXTT3=
EXTT4=
EXTT5=
EXTT6=
EXTT7=
EXTT8=
EXTT9=
PLAYORDER=
